<mxfile host="app.diagrams.net" modified="2023-11-22T23:03:48.694Z" agent="Mozilla/5.0 (Windows NT 10.0; Win64; x64) AppleWebKit/537.36 (KHTML, like Gecko) Chrome/119.0.0.0 Safari/537.36 Edg/119.0.0.0" etag="saBkLLHUorUk6q-khV80" version="22.1.3" type="device">
  <diagram name="Page-1" id="gBa5-5V1cXs1QuyRFXN7">
    <mxGraphModel dx="1386" dy="421" grid="0" gridSize="10" guides="1" tooltips="1" connect="1" arrows="1" fold="1" page="0" pageScale="1" pageWidth="850" pageHeight="1100" math="0" shadow="0">
      <root>
        <mxCell id="0" />
        <mxCell id="1" parent="0" />
        <mxCell id="r9lWCFjo6PMTFZuYXxas-1" value="CUSTOMERS" style="rounded=1;whiteSpace=wrap;html=1;fontSize=16;fontStyle=1" parent="1" vertex="1">
          <mxGeometry x="-72" y="17" width="121" height="85" as="geometry" />
        </mxCell>
        <mxCell id="r9lWCFjo6PMTFZuYXxas-2" value="&lt;b&gt;STAFFS&lt;/b&gt;" style="rounded=1;whiteSpace=wrap;html=1;fontSize=16;" parent="1" vertex="1">
          <mxGeometry x="144" y="197" width="120" height="60" as="geometry" />
        </mxCell>
        <mxCell id="r9lWCFjo6PMTFZuYXxas-3" value="&lt;b&gt;PAYMENTS&lt;/b&gt;" style="rounded=1;whiteSpace=wrap;html=1;fontSize=16;" parent="1" vertex="1">
          <mxGeometry x="-66" y="330" width="120" height="60" as="geometry" />
        </mxCell>
        <mxCell id="r9lWCFjo6PMTFZuYXxas-4" value="&lt;b&gt;SERVICES&lt;/b&gt;" style="rounded=1;whiteSpace=wrap;html=1;fontSize=16;" parent="1" vertex="1">
          <mxGeometry x="161" y="29.5" width="120" height="60" as="geometry" />
        </mxCell>
        <mxCell id="jEcD6tn8ACc8jUJ26Be2-6" value="" style="fontSize=12;html=1;endArrow=ERmandOne;startArrow=ERmandOne;rounded=0;edgeStyle=elbowEdgeStyle;" parent="1" edge="1">
          <mxGeometry width="100" height="100" relative="1" as="geometry">
            <mxPoint x="-73" y="51" as="sourcePoint" />
            <mxPoint x="-66" y="359" as="targetPoint" />
            <Array as="points">
              <mxPoint x="-105" y="210" />
            </Array>
          </mxGeometry>
        </mxCell>
        <mxCell id="jEcD6tn8ACc8jUJ26Be2-10" value="" style="fontSize=12;html=1;endArrow=ERzeroToOne;endFill=1;rounded=0;entryX=1;entryY=0.5;entryDx=0;entryDy=0;" parent="1" target="r9lWCFjo6PMTFZuYXxas-1" edge="1">
          <mxGeometry width="100" height="100" relative="1" as="geometry">
            <mxPoint x="103" y="60" as="sourcePoint" />
            <mxPoint x="51" y="68" as="targetPoint" />
          </mxGeometry>
        </mxCell>
        <mxCell id="jEcD6tn8ACc8jUJ26Be2-11" value="" style="fontSize=12;html=1;endArrow=ERmany;rounded=0;" parent="1" edge="1">
          <mxGeometry width="100" height="100" relative="1" as="geometry">
            <mxPoint x="100" y="59" as="sourcePoint" />
            <mxPoint x="163" y="59" as="targetPoint" />
          </mxGeometry>
        </mxCell>
        <mxCell id="jEcD6tn8ACc8jUJ26Be2-12" value="" style="edgeStyle=elbowEdgeStyle;fontSize=12;html=1;endArrow=ERzeroToOne;startArrow=ERmandOne;rounded=0;" parent="1" edge="1">
          <mxGeometry width="100" height="100" relative="1" as="geometry">
            <mxPoint x="54" y="375.34" as="sourcePoint" />
            <mxPoint x="193" y="257" as="targetPoint" />
            <Array as="points">
              <mxPoint x="193" y="350.34" />
            </Array>
          </mxGeometry>
        </mxCell>
        <mxCell id="jEcD6tn8ACc8jUJ26Be2-14" value="" style="edgeStyle=elbowEdgeStyle;fontSize=12;html=1;endArrow=ERoneToMany;startArrow=ERoneToMany;rounded=0;entryX=1;entryY=0.5;entryDx=0;entryDy=0;" parent="1" target="r9lWCFjo6PMTFZuYXxas-4" edge="1">
          <mxGeometry width="100" height="100" relative="1" as="geometry">
            <mxPoint x="264" y="220" as="sourcePoint" />
            <mxPoint x="364" y="120" as="targetPoint" />
            <Array as="points">
              <mxPoint x="407" y="149" />
            </Array>
          </mxGeometry>
        </mxCell>
      </root>
    </mxGraphModel>
  </diagram>
</mxfile>
